<svg xmlns="http://www.w3.org/2000/svg" viewBox="0 0 171.66 177.69"><title>LTI logo</title><g id="f6a02404-70f4-4d42-9f9e-051daf2f4eed" data-name="Layer 2"><g id="ac08cd16-62a1-4f29-9612-015daa3880d0" data-name="Layer 1"><polygon points="171.66 177.69 125.43 130.06 0 130.06 0 0 171.66 0 171.66 177.69" fill="#0093b8"/><path d="M21.41,21.16H32V44.41H46.23v8.22H21.41Z" fill="#fff"/><path d="M75.57,44.4v8.23H50.05V21.16H75.64v8.23H60.48v3.82H71.75l0,7.34H60.47V44.4Z" fill="#fff"/><path d="M88.68,29.39H79.46V21.16h29v8.23H99.29V52.63H88.68Z" fill="#fff"/><path d="M128.61,52.48a20.59,20.59,0,0,1-6.09-2.36l3.42-7.74a21.51,21.51,0,0,0,5,2.09,19.48,19.48,0,0,0,5.35.79,8.19,8.19,0,0,0,3.15-.43,1.36,1.36,0,0,0,.94-1.28c0-.66-.41-1.15-1.23-1.48A26.73,26.73,0,0,0,135.11,41,46.92,46.92,0,0,1,129,39.35a10.45,10.45,0,0,1-4.23-2.88,7.8,7.8,0,0,1-1.8-5.42,9.31,9.31,0,0,1,1.67-5.39,11,11,0,0,1,5-3.83,20.8,20.8,0,0,1,8-1.39,28.76,28.76,0,0,1,6.36.7,20,20,0,0,1,5.51,2l-3.19,7.69a19.49,19.49,0,0,0-8.77-2.33c-2.73,0-4.09.65-4.09,2,0,.63.41,1.11,1.21,1.42a26.49,26.49,0,0,0,4,1,42.11,42.11,0,0,1,6.07,1.55,10.63,10.63,0,0,1,4.29,2.86,7.68,7.68,0,0,1,1.82,5.39,9.25,9.25,0,0,1-1.66,5.38,11.29,11.29,0,0,1-5,3.82,20.43,20.43,0,0,1-8,1.41A33.35,33.35,0,0,1,128.61,52.48Z" fill="#fff"/><path d="M30.63,68.55H21.41V60.33H50.46v8.22H41.24V91.8H30.63Z" fill="#fff"/><path d="M73.69,86.31h-12L59.62,91.8H48.83L62.59,60.33H73L86.78,91.8h-11Zm-2.92-7.64-3.06-7.91-3,7.91Z" fill="#fff"/><path d="M88.69,60.33H99.3V83.57h14.21V91.8H88.69Z" fill="#fff"/><path d="M130.12,81.37,127.74,84V91.8H117.3V60.33h10.44V71.75l10.34-11.42h11.55L137,74.17,150.26,91.8H138Z" fill="#fff"/><path d="M21.43,99.29a.69.69,0,0,1-.22-.52A.75.75,0,0,1,22,98a.72.72,0,0,1,.53.21.66.66,0,0,1,.22.5.76.76,0,0,1-1.29.54Zm0,1.89h1v7.64h-1Z" fill="#fff"/><path d="M36.93,102a3.29,3.29,0,0,1,.85,2.43v4.43h-1v-4.33a2.5,2.5,0,0,0-.59-1.81,2.24,2.24,0,0,0-1.7-.63,2.62,2.62,0,0,0-2,.74,2.76,2.76,0,0,0-.72,2v4h-1v-7.64h1v1.41a2.84,2.84,0,0,1,1.17-1.08,3.72,3.72,0,0,1,1.74-.39A3.12,3.12,0,0,1,36.93,102Z" fill="#fff"/><path d="M50,108.36a2.1,2.1,0,0,1-.72.4,3,3,0,0,1-.9.14,2,2,0,0,1-2.24-2.23v-4.62H44.78v-.87h1.36V99.51h1v1.67H49.5v.87H47.18v4.56a1.42,1.42,0,0,0,.34,1,1.28,1.28,0,0,0,1,.36,1.87,1.87,0,0,0,.62-.1,1.69,1.69,0,0,0,.51-.29Z" fill="#fff"/><path d="M63.64,105.32H57.25a2.7,2.7,0,0,0,.91,1.93,3,3,0,0,0,2.09.73,3.29,3.29,0,0,0,1.31-.25,2.82,2.82,0,0,0,1-.75l.58.67a3.41,3.41,0,0,1-1.27.93,4.37,4.37,0,0,1-1.68.32,4.16,4.16,0,0,1-2.08-.51A3.56,3.56,0,0,1,56.72,107a4,4,0,0,1-.51-2,4.14,4.14,0,0,1,.49-2A3.56,3.56,0,0,1,58,101.62a3.88,3.88,0,0,1,3.81,0A3.48,3.48,0,0,1,63.17,103a4.15,4.15,0,0,1,.48,2Zm-5.54-2.61a2.74,2.74,0,0,0-.85,1.84h5.42a2.84,2.84,0,0,0-.85-1.84A2.63,2.63,0,0,0,60,102,2.57,2.57,0,0,0,58.1,102.71Z" fill="#fff"/><path d="M73.22,101.51a3.69,3.69,0,0,1,1.78-.39v1l-.25,0a2.43,2.43,0,0,0-1.88.74,3,3,0,0,0-.69,2.08v3.89h-1v-7.64h1v1.5A2.51,2.51,0,0,1,73.22,101.51Z" fill="#fff"/><path d="M87.21,101.87a2.91,2.91,0,0,1,.8,2.22v4.73H87v-1.19a2.34,2.34,0,0,1-1,.93,3.6,3.6,0,0,1-1.6.34,3.22,3.22,0,0,1-2-.61,2,2,0,0,1-.75-1.62,2,2,0,0,1,.7-1.57,3.5,3.5,0,0,1,2.25-.59H87V104a1.93,1.93,0,0,0-.55-1.5,2.29,2.29,0,0,0-1.61-.52,4.16,4.16,0,0,0-1.4.24,3.56,3.56,0,0,0-1.14.66l-.47-.77a4.1,4.1,0,0,1,1.4-.76,5.37,5.37,0,0,1,1.71-.27A3.25,3.25,0,0,1,87.21,101.87ZM86,107.68a2.32,2.32,0,0,0,.93-1.15v-1.25H84.58c-1.31,0-2,.45-2,1.36a1.25,1.25,0,0,0,.5,1.06,2.38,2.38,0,0,0,1.43.38A2.65,2.65,0,0,0,86,107.68Z" fill="#fff"/><path d="M97.37,108.4A3.6,3.6,0,0,1,96,107a4.2,4.2,0,0,1,0-4,3.64,3.64,0,0,1,1.4-1.38,4.13,4.13,0,0,1,2-.5,3.86,3.86,0,0,1,1.76.39,2.89,2.89,0,0,1,1.23,1.12l-.77.53a2.38,2.38,0,0,0-1-.85A2.84,2.84,0,0,0,99.4,102a3.08,3.08,0,0,0-1.49.37,2.57,2.57,0,0,0-1,1.06,3.45,3.45,0,0,0,0,3.11,2.6,2.6,0,0,0,1,1,3.13,3.13,0,0,0,2.75.1,2.38,2.38,0,0,0,1-.85l.77.53a3,3,0,0,1-1.23,1.12,3.92,3.92,0,0,1-1.76.39A4.13,4.13,0,0,1,97.37,108.4Z" fill="#fff"/><path d="M113.91,108.36a1.93,1.93,0,0,1-.72.4,2.91,2.91,0,0,1-.89.14,2,2,0,0,1-2.24-2.23v-4.62H108.7v-.87h1.36V99.51h1v1.67h2.33v.87h-2.33v4.56a1.42,1.42,0,0,0,.35,1,1.27,1.27,0,0,0,1,.36,1.77,1.77,0,0,0,.61-.1,1.75,1.75,0,0,0,.52-.29Z" fill="#fff"/><path d="M121.16,99.29a.72.72,0,0,1-.21-.52.73.73,0,0,1,.75-.73.76.76,0,0,1,.54.21.7.7,0,0,1,.22.5.76.76,0,0,1-1.3.54Zm0,1.89h1v7.64h-1Z" fill="#fff"/><path d="M136.9,101.18l-3.4,7.64h-1.06l-3.39-7.64h1.08l2.86,6.51,2.89-6.51Z" fill="#fff"/><path d="M150.18,105.32h-6.39a2.74,2.74,0,0,0,.91,1.93,3,3,0,0,0,2.1.73,3.24,3.24,0,0,0,1.3-.25,2.82,2.82,0,0,0,1-.75l.59.67a3.44,3.44,0,0,1-1.28.93,4.29,4.29,0,0,1-1.67.32,4.2,4.2,0,0,1-2.09-.51,3.62,3.62,0,0,1-1.42-1.38,4,4,0,0,1-.5-2,4.14,4.14,0,0,1,.48-2,3.56,3.56,0,0,1,1.34-1.38,3.73,3.73,0,0,1,1.91-.5,3.67,3.67,0,0,1,1.9.5,3.51,3.51,0,0,1,1.33,1.37,4.15,4.15,0,0,1,.48,2Zm-5.54-2.61a2.79,2.79,0,0,0-.85,1.84h5.42a2.79,2.79,0,0,0-.85-1.84,2.62,2.62,0,0,0-1.87-.7A2.58,2.58,0,0,0,144.64,102.71Z" fill="#fff"/><polygon points="111.49 29.39 117.63 29.39 120.61 33.24 120.61 21.16 111.49 21.16 111.49 29.39" fill="#fff"/></g></g></svg>