<?xml version="1.0" standalone="no"?>
<!DOCTYPE svg PUBLIC "-//W3C//DTD SVG 20010904//EN"
 "http://www.w3.org/TR/2001/REC-SVG-20010904/DTD/svg10.dtd">
<svg version="1.0" xmlns="http://www.w3.org/2000/svg"
 width="320.000000pt" height="320.000000pt" viewBox="0 0 320.000000 320.000000"
 preserveAspectRatio="xMidYMid meet">
<metadata>
Created by potrace 1.14, written by Peter Selinger 2001-2017
</metadata>
<g transform="translate(0.000000,320.000000) scale(0.100000,-0.100000)"
fill="#000000" stroke="none">
<path d="M1405 2915 c-130 -21 -146 -25 -240 -56 -616 -206 -1015 -792 -969
-1426 l8 -118 7 180 c7 193 20 270 70 418 119 353 394 662 731 822 203 96 387
137 618 137 240 0 423 -43 631 -148 197 -98 394 -263 504 -420 59 -83 76 -103
45 -49 -178 303 -521 552 -875 635 -172 41 -374 50 -530 25z"/>
<path d="M1490 2785 c-8 -2 -49 -9 -90 -15 -94 -15 -262 -71 -354 -117 -187
-94 -392 -271 -504 -435 -29 -43 -51 -78 -49 -78 2 0 27 30 54 68 62 83 205
222 295 285 145 103 339 185 533 223 134 27 367 24 505 -5 199 -42 386 -127
545 -247 88 -65 227 -208 287 -294 221 -314 299 -724 207 -1083 -25 -101 -19
-111 10 -15 52 178 67 424 36 604 -98 564 -544 1010 -1101 1098 -87 14 -324
21 -374 11z"/>
<path d="M1093 2058 c151 -296 271 -590 390 -953 36 -110 70 -219 77 -242 6
-24 14 -43 18 -43 4 0 41 10 82 23 l74 23 15 49 c41 145 190 577 243 709 72
178 172 398 233 514 l44 83 -46 -38 c-133 -109 -367 -389 -505 -604 l-77 -120
-17 32 c-58 113 -225 348 -343 483 -74 84 -235 235 -261 244 -5 2 28 -70 73
-160z"/>
<path d="M1563 2050 c-86 -52 -82 -189 6 -235 17 -8 50 -15 75 -15 36 0 52 6
81 31 68 60 68 148 -1 209 -28 24 -44 30 -82 30 -29 0 -59 -8 -79 -20z"/>
<path d="M1085 1805 c4 -11 15 -74 27 -140 17 -101 20 -152 16 -320 -2 -110
-7 -205 -11 -212 -8 -13 -138 13 -262 53 -97 32 -292 110 -322 130 -50 31 -16
-1 132 -130 147 -127 370 -299 535 -414 l75 -52 104 35 c57 19 106 36 107 38
10 10 -145 449 -227 642 -64 152 -187 413 -174 370z"/>
<path d="M2141 1717 c-78 -162 -143 -313 -216 -512 -51 -135 -105 -296 -105
-310 0 -8 16 -9 53 -4 74 11 211 10 287 -1 54 -8 69 -6 90 7 48 32 316 249
415 337 55 49 102 90 104 92 2 1 -50 -21 -115 -50 -176 -78 -485 -169 -499
-146 -3 4 -8 79 -11 166 -7 162 3 306 30 434 8 36 13 66 11 68 -1 2 -21 -35
-44 -81z"/>
<path d="M836 1476 c-29 -26 -36 -41 -36 -70 0 -71 50 -126 115 -126 111 0
155 154 61 211 -49 30 -98 25 -140 -15z"/>
<path d="M2284 1476 c-28 -28 -34 -41 -34 -77 1 -66 53 -119 116 -119 50 0
114 65 114 115 0 32 -33 86 -61 100 -49 26 -97 19 -135 -19z"/>
<path d="M330 800 c76 -69 215 -162 314 -210 105 -51 216 -79 336 -86 145 -9
265 15 635 126 213 64 319 82 495 88 236 7 407 -24 628 -113 101 -40 96 -33
-25 34 -282 155 -557 225 -791 202 -134 -14 -245 -42 -491 -125 -243 -82 -330
-100 -486 -99 -190 2 -374 59 -585 183 l-85 50 55 -50z"/>
<path d="M380 655 c0 -10 221 -150 294 -187 214 -108 422 -140 656 -103 52 9
201 42 330 75 129 32 287 68 350 80 317 57 619 27 955 -95 l20 -7 -20 14 c-35
26 -206 99 -325 139 -172 59 -299 81 -465 81 -192 1 -276 -14 -560 -99 -238
-71 -347 -93 -485 -99 -214 -10 -387 30 -627 146 -68 32 -123 57 -123 55z"/>
</g>
</svg>
